<?xml version="1.0" encoding="utf-8"?>
<!-- Generator: Adobe Illustrator 16.0.0, SVG Export Plug-In . SVG Version: 6.00 Build 0)  -->
<!DOCTYPE svg PUBLIC "-//W3C//DTD SVG 1.1//EN" "http://www.w3.org/Graphics/SVG/1.1/DTD/svg11.dtd">
<svg version="1.1" xmlns="http://www.w3.org/2000/svg" xmlns:xlink="http://www.w3.org/1999/xlink" x="0px" y="0px" width="16px"
	 height="16.193px" viewBox="0 0 16 16.193" enable-background="new 0 0 16 16.193" xml:space="preserve">
<g id="Twitch_Logo">
</g>
<g id="Search_Icon">
	<path fill-rule="evenodd" clip-rule="evenodd" fill="#F5F5F5" d="M15.768,14.489l-4.036-4.035c0.826-1.094,1.32-2.451,1.32-3.928
		C13.052,2.922,10.132,0,6.526,0C2.923,0,0,2.922,0,6.526c0,3.606,2.923,6.527,6.526,6.527c1.378,0,2.653-0.43,3.707-1.158
		l4.065,4.064c0.311,0.312,0.813,0.311,1.124,0l0.345-0.345C16.077,15.304,16.077,14.8,15.768,14.489z M2.187,6.526
		c0-2.396,1.943-4.338,4.34-4.338s4.339,1.942,4.339,4.338c0,2.397-1.942,4.34-4.339,4.34S2.187,8.923,2.187,6.526z"/>
</g>
</svg>
